<?xml version="1.0" encoding="UTF-8" standalone="no"?>
<!-- Generator: Adobe Illustrator 25.2.1, SVG Export Plug-In . SVG Version: 6.00 Build 0)  -->

<svg
   xmlns:dc="http://purl.org/dc/elements/1.1/"
   xmlns:cc="http://creativecommons.org/ns#"
   xmlns:rdf="http://www.w3.org/1999/02/22-rdf-syntax-ns#"
   xmlns:svg="http://www.w3.org/2000/svg"
   xmlns="http://www.w3.org/2000/svg"
   xmlns:sodipodi="http://sodipodi.sourceforge.net/DTD/sodipodi-0.dtd"
   xmlns:inkscape="http://www.inkscape.org/namespaces/inkscape"
   version="1.1"
   id="Layer_1"
   x="0px"
   y="0px"
   viewBox="0 0 792 528"
   xml:space="preserve"
   sodipodi:docname="gamePad.svg"
   width="8.25in"
   height="5.5in"
   inkscape:version="0.92.4 (5da689c313, 2019-01-14)"><metadata
   id="metadata21"><rdf:RDF><cc:Work
       rdf:about=""><dc:format>image/svg+xml</dc:format><dc:type
         rdf:resource="http://purl.org/dc/dcmitype/StillImage" /><dc:title></dc:title></cc:Work></rdf:RDF></metadata><defs
   id="defs19" /><sodipodi:namedview
   pagecolor="#ffffff"
   bordercolor="#999999"
   borderopacity="1"
   objecttolerance="10"
   gridtolerance="10"
   guidetolerance="10"
   inkscape:pageopacity="0"
   inkscape:pageshadow="2"
   inkscape:window-width="1920"
   inkscape:window-height="1017"
   id="namedview17"
   showgrid="false"
   units="in"
   height="14.5in"
   inkscape:zoom="0.38628982"
   inkscape:cx="-60.911086"
   inkscape:cy="646.40604"
   inkscape:window-x="-8"
   inkscape:window-y="-8"
   inkscape:window-maximized="1"
   inkscape:current-layer="Layer_1" />
<style
   type="text/css"
   id="style2">
	.st0{fill:#010101;}
</style>
<g
   id="g14"
   transform="translate(-36.09324,-236.89779)">
	<path
   class="st0"
   d="M 673.8,408.7 C 651.9,328.5 604.2,270.2 560.4,270.2 c -20.1,0 -30.3,9.2 -37.1,16.2 -2.9,2.9 -7.1,4.6 -11.6,4.6 h -65.5 l -93.7,0.1 c -4.6,0 -8.9,-1.7 -11.6,-4.6 -6.9,-7.1 -15,-16.2 -37.1,-16.2 -43.8,0 -91.6,58.2 -113.3,138.4 -24.5,89.7 -7.1,170.2 39.6,183.2 4.4,1.2 58.7,19.1 111,-91.7 8.7,8.7 20.5,14 33.5,14 26.3,0 47.7,-21.6 47.7,-48.2 0,-7.2 -1.7,-13.9 -4.5,-20.1 h 29.4 c -2.8,6.1 -4.4,12.9 -4.4,20.1 0,26.6 21.4,48.2 47.7,48.2 12.8,0 24.6,-5.2 33.1,-13.6 29.1,64.8 75.5,102.1 110.9,91.3 46,-14.1 63.7,-93.5 39.3,-183.2 z m -299.3,77.5 c -10.7,0 -19.5,-9.1 -19.5,-20.1 0,-11 8.8,-20.1 19.5,-20.1 10.7,0 19.5,9.1 19.5,20.1 0,11.1 -8.8,20.1 -19.5,20.1 z m 115.7,0 c -10.7,0 -19.5,-9.1 -19.5,-20.1 0,-11 8.8,-20.1 19.5,-20.1 10.7,0 19.5,9.1 19.5,20.1 0.1,11.1 -8.7,20.1 -19.5,20.1 z M 626.6,565 C 597.2,574.3 554.3,520.8 534.4,448.2 534.4,448.1 529,418 496,418 H 368.2 c -17.8,0 -33.6,12.2 -38.4,30.1 v 0.1 c -19.8,72.6 -62.7,126 -92.2,116.8 -26.4,-8.3 -41.5,-70.5 -20.1,-148.8 19.8,-72.7 60.3,-117.8 86.4,-117.8 7.9,0 13.5,4.3 16.9,7.7 8.1,8.4 19.7,13.1 31.8,13.1 h 159 c 12.1,0 23.8,-4.8 31.8,-13.1 3.4,-3.5 7.9,-7.7 16.9,-7.7 26.1,0 66.6,45.1 86.4,117.8 21.4,78.3 6.2,140.4 -20.1,148.8 z"
   id="path4"
   inkscape:connector-curvature="0"
   style="fill:#010101" />
	<path
   class="st0"
   d="m 395.7,339.5 h -14 c -7.8,0 -14,6.3 -14,14 0,7.8 6.3,14 14,14 h 14 c 7.8,0 14,-6.3 14,-14 0,-7.8 -6.2,-14 -14,-14 z"
   id="path6"
   inkscape:connector-curvature="0"
   style="fill:#010101" />
	<path
   class="st0"
   d="m 482.4,339.5 h -14 c -7.8,0 -14,6.3 -14,14 0,7.8 6.3,14 14,14 h 14 c 7.8,0 14,-6.3 14,-14 0.1,-7.8 -6.3,-14 -14,-14 z"
   id="path8"
   inkscape:connector-curvature="0"
   style="fill:#010101" />
	<path
   class="st0"
   d="m 323.5,377.8 h -17.7 v -18.2 c 0,-7.8 -6.3,-14 -14,-14 -7.8,0 -14,6.3 -14,14 v 18.2 H 260 c -7.8,0 -14,6.3 -14,14 0,7.8 6.3,14 14,14 h 17.7 V 424 c 0,7.8 6.3,14 14,14 7.8,0 14,-6.3 14,-14 v -18.2 h 17.8 c 7.8,0 14,-6.3 14,-14 0.1,-7.8 -6.2,-14 -14,-14 z"
   id="path10"
   inkscape:connector-curvature="0"
   style="fill:#010101" />
	<path
   class="st0"
   d="m 604.2,377.8 h -17.7 v -18.2 c 0,-7.8 -6.3,-14 -14,-14 -7.7,0 -14,6.3 -14,14 v 18.2 h -17.7 c -7.8,0 -14,6.3 -14,14 0,7.8 6.3,14 14,14 h 17.7 V 424 c 0,7.8 6.3,14 14,14 7.8,0 14,-6.3 14,-14 v -18.2 h 17.7 c 7.8,0 14,-6.3 14,-14 0,-7.8 -6.3,-14 -14,-14 z"
   id="path12"
   inkscape:connector-curvature="0"
   style="fill:#010101" />
</g>
<flowRoot
   xml:space="preserve"
   id="flowRoot23"
   style="font-style:normal;font-variant:normal;font-weight:normal;font-stretch:normal;font-size:53.33333206px;line-height:0px;font-family:Ravie;-inkscape-font-specification:Ravie;letter-spacing:0.81999999px;word-spacing:0px;fill:#000000;fill-opacity:1;stroke:none"
   transform="translate(0,-1440)"><flowRegion
     id="flowRegion25"><rect
       id="rect27"
       width="300.29266"
       height="318.41379"
       x="724.84436"
       y="614.09424" /></flowRegion><flowPara
     id="flowPara29"></flowPara></flowRoot><text
   xml:space="preserve"
   style="font-style:normal;font-variant:normal;font-weight:normal;font-stretch:normal;font-size:192px;line-height:0px;font-family:'Bauhaus 93';-inkscape-font-specification:'Bauhaus 93, Normal';font-variant-ligatures:normal;font-variant-caps:normal;font-variant-numeric:normal;font-feature-settings:normal;text-align:start;letter-spacing:0.81999999px;word-spacing:0px;writing-mode:lr-tb;text-anchor:start;fill:#000000;fill-opacity:1;stroke:none"
   x="-2.8349915"
   y="520.23383"
   id="text33"><tspan
     sodipodi:role="line"
     id="tspan31"
     x="-2.8349915"
     y="520.23383">GameRev</tspan></text>
</svg>